<?xml version="1.0" standalone="no"?>
<!DOCTYPE svg PUBLIC "-//W3C//DTD SVG 20010904//EN"
 "http://www.w3.org/TR/2001/REC-SVG-20010904/DTD/svg10.dtd">
<svg version="1.0" xmlns="http://www.w3.org/2000/svg"
 width="328.000000pt" height="328.000000pt" viewBox="0 0 328.000000 328.000000"
 preserveAspectRatio="xMidYMid meet">
<metadata>
Created by potrace 1.14, written by Peter Selinger 2001-2017
</metadata>
<g transform="translate(0.000000,328.000000) scale(0.100000,-0.100000)"
fill="#000000" stroke="none">
<path d="M1213 2555 c-133 -48 -231 -161 -292 -332 -26 -77 -99 -273 -110
-298 -4 -11 -18 -45 -29 -75 -168 -443 -300 -791 -324 -855 -32 -89 -38 -162
-15 -216 59 -143 241 -194 364 -103 53 40 71 76 164 322 49 130 94 246 99 257
5 11 43 112 85 225 42 113 82 219 89 235 7 17 33 84 57 149 l43 119 46 -94
c69 -142 165 -346 335 -705 138 -291 199 -408 232 -444 163 -181 453 -140 561
79 l27 56 3 735 c2 560 0 746 -10 780 -26 97 -143 171 -245 155 -82 -12 -129
-44 -171 -115 l-27 -45 -5 -425 c-3 -237 -9 -415 -13 -403 -5 13 -46 100 -91
195 -46 95 -100 209 -121 253 -175 369 -196 407 -253 465 -73 73 -145 102
-257 106 -62 1 -94 -3 -142 -21z"/>
<path d="M1298 1350 c-52 -28 -81 -73 -86 -135 -11 -138 122 -226 248 -162
121 60 119 243 -3 301 -46 21 -113 20 -159 -4z"/>
</g>
</svg>
